<svg width="472" height="264" viewBox="0 0 472 264" fill="none" xmlns="http://www.w3.org/2000/svg">
<path d="M231.58 5.53953C233.581 2.89366 237.556 2.89366 239.557 5.53953L266.31 40.9224C267.784 42.8711 270.45 43.4697 272.615 42.338L323.744 15.6121C327.141 13.8365 331.19 16.3861 331.057 20.2167L329.914 53.1476C329.803 56.359 332.706 58.8403 335.861 58.2299L396.733 46.4529C401.357 45.5584 404.541 50.9689 401.513 54.5763L380.739 79.3276C378.08 82.4959 380.199 87.3389 384.33 87.5363L439.905 90.1911C445.083 90.4384 446.51 97.4305 441.843 99.6868L406.279 116.883C402.19 118.86 402.643 124.825 406.984 126.162L449.68 139.318C454.714 140.869 454.237 148.145 449.044 149.026L399.47 157.431C395.121 158.168 393.788 163.764 397.336 166.383L425.69 187.31C429.716 190.281 427.365 196.668 422.374 196.321L362.656 192.161C358.945 191.903 356.262 195.641 357.693 199.074L369.743 227.963C371.397 231.93 367.605 235.998 363.531 234.626L305.409 215.04C302.805 214.162 299.981 215.551 299.085 218.15L286.844 253.681C285.717 256.95 281.691 258.117 278.991 255.955L238.694 223.687C236.867 222.225 234.27 222.225 232.443 223.687L192.146 255.955C189.446 258.117 185.42 256.95 184.293 253.681L172.051 218.15C171.156 215.551 168.332 214.162 165.727 215.04L107.606 234.626C103.532 235.998 99.7393 231.93 101.394 227.963L113.443 199.074C114.875 195.641 112.191 191.903 108.481 192.161L48.7629 196.321C43.7716 196.668 41.4206 190.281 45.4464 187.31L73.8005 166.383C77.3491 163.764 76.0155 158.168 71.6672 157.431L22.0931 149.026C16.8997 148.145 16.4227 140.869 21.4566 139.318L64.1532 126.162C68.494 124.825 68.9467 118.86 64.8574 116.883L29.2934 99.6868C24.6269 97.4305 26.0539 90.4384 31.2313 90.1911L86.8063 87.5363C90.938 87.3389 93.0567 82.4959 90.3976 79.3276L69.6239 54.5763C66.5962 50.9689 69.7796 45.5584 74.4035 46.453L135.276 58.2299C138.431 58.8403 141.334 56.359 141.223 53.1476L140.08 20.2167C139.947 16.3861 143.996 13.8365 147.393 15.6121L198.522 42.338C200.687 43.4697 203.353 42.8711 204.826 40.9224L231.58 5.53953Z" fill="#F2491E"/>
<path d="M150.366 107.103V124.558H147.554L139.329 112.668H139.184V124.558H136.022V107.103H138.852L147.068 119.001H147.221V107.103H150.366ZM159.471 124.813C158.158 124.813 157.025 124.541 156.07 123.995C155.121 123.444 154.391 122.666 153.88 121.66C153.368 120.649 153.113 119.458 153.113 118.089C153.113 116.742 153.368 115.56 153.88 114.543C154.397 113.521 155.118 112.725 156.044 112.157C156.971 111.583 158.059 111.296 159.309 111.296C160.115 111.296 160.877 111.427 161.593 111.688C162.314 111.944 162.951 112.342 163.502 112.881C164.059 113.421 164.496 114.109 164.814 114.944C165.132 115.774 165.292 116.762 165.292 117.91V118.856H154.561V116.776H162.334C162.328 116.185 162.201 115.66 161.951 115.2C161.701 114.734 161.351 114.367 160.902 114.1C160.459 113.833 159.942 113.7 159.351 113.7C158.721 113.7 158.167 113.853 157.689 114.16C157.212 114.461 156.84 114.859 156.573 115.353C156.311 115.842 156.178 116.379 156.172 116.964V118.779C156.172 119.541 156.311 120.194 156.59 120.739C156.868 121.279 157.257 121.694 157.757 121.984C158.257 122.268 158.843 122.41 159.513 122.41C159.962 122.41 160.368 122.347 160.732 122.222C161.096 122.092 161.411 121.901 161.678 121.651C161.945 121.401 162.147 121.092 162.283 120.722L165.164 121.046C164.982 121.808 164.635 122.472 164.124 123.041C163.618 123.603 162.971 124.041 162.181 124.353C161.391 124.66 160.488 124.813 159.471 124.813ZM167.902 124.558V111.467H170.85V113.691H171.004C171.277 112.941 171.728 112.356 172.359 111.935C172.99 111.509 173.743 111.296 174.618 111.296C175.504 111.296 176.251 111.512 176.859 111.944C177.473 112.37 177.904 112.953 178.154 113.691H178.291C178.581 112.964 179.069 112.384 179.757 111.953C180.45 111.515 181.271 111.296 182.22 111.296C183.424 111.296 184.407 111.677 185.169 112.438C185.93 113.2 186.311 114.31 186.311 115.771V124.558H183.217V116.248C183.217 115.435 183.001 114.842 182.569 114.467C182.137 114.086 181.609 113.896 180.984 113.896C180.24 113.896 179.657 114.129 179.237 114.595C178.822 115.055 178.615 115.654 178.615 116.393V124.558H175.589V116.12C175.589 115.444 175.385 114.904 174.975 114.501C174.572 114.097 174.044 113.896 173.39 113.896C172.947 113.896 172.544 114.009 172.18 114.237C171.816 114.458 171.527 114.774 171.311 115.183C171.095 115.586 170.987 116.058 170.987 116.597V124.558H167.902ZM195.394 124.558V111.467H198.385V113.649H198.522C198.76 112.893 199.169 112.31 199.749 111.901C200.334 111.487 201.002 111.279 201.752 111.279C201.922 111.279 202.113 111.288 202.323 111.305C202.539 111.316 202.718 111.336 202.86 111.364V114.203C202.729 114.157 202.522 114.117 202.238 114.083C201.959 114.043 201.689 114.024 201.428 114.024C200.865 114.024 200.36 114.146 199.911 114.39C199.468 114.629 199.118 114.961 198.863 115.387C198.607 115.813 198.479 116.305 198.479 116.862V124.558H195.394ZM208.442 124.822C207.613 124.822 206.865 124.674 206.201 124.379C205.542 124.078 205.019 123.634 204.632 123.049C204.252 122.464 204.061 121.742 204.061 120.884C204.061 120.146 204.198 119.535 204.471 119.052C204.743 118.569 205.115 118.183 205.587 117.893C206.059 117.603 206.59 117.384 207.181 117.237C207.777 117.083 208.394 116.972 209.03 116.904C209.797 116.825 210.419 116.754 210.897 116.691C211.374 116.623 211.721 116.521 211.936 116.384C212.158 116.242 212.269 116.024 212.269 115.728V115.677C212.269 115.035 212.078 114.538 211.698 114.185C211.317 113.833 210.769 113.657 210.053 113.657C209.297 113.657 208.698 113.822 208.255 114.151C207.817 114.481 207.522 114.87 207.368 115.319L204.488 114.91C204.715 114.114 205.09 113.45 205.613 112.916C206.135 112.376 206.775 111.972 207.53 111.705C208.286 111.433 209.121 111.296 210.036 111.296C210.667 111.296 211.294 111.37 211.919 111.518C212.544 111.666 213.115 111.91 213.632 112.251C214.15 112.586 214.564 113.043 214.877 113.623C215.195 114.203 215.354 114.927 215.354 115.796V124.558H212.388V122.759H212.286C212.098 123.123 211.834 123.464 211.493 123.782C211.158 124.095 210.735 124.347 210.223 124.541C209.718 124.728 209.124 124.822 208.442 124.822ZM209.243 122.555C209.863 122.555 210.4 122.433 210.854 122.188C211.309 121.938 211.658 121.609 211.902 121.2C212.152 120.791 212.277 120.345 212.277 119.862V118.319C212.181 118.399 212.016 118.472 211.783 118.541C211.556 118.609 211.3 118.668 211.016 118.72C210.732 118.771 210.451 118.816 210.172 118.856C209.894 118.896 209.652 118.93 209.448 118.958C208.988 119.021 208.576 119.123 208.212 119.265C207.848 119.407 207.561 119.606 207.351 119.862C207.141 120.112 207.036 120.435 207.036 120.833C207.036 121.401 207.243 121.83 207.658 122.12C208.073 122.41 208.601 122.555 209.243 122.555ZM218.456 124.558V111.467H221.405V113.691H221.559C221.831 112.941 222.283 112.356 222.914 111.935C223.544 111.509 224.297 111.296 225.172 111.296C226.059 111.296 226.806 111.512 227.414 111.944C228.027 112.37 228.459 112.953 228.709 113.691H228.846C229.135 112.964 229.624 112.384 230.311 111.953C231.005 111.515 231.826 111.296 232.775 111.296C233.979 111.296 234.962 111.677 235.723 112.438C236.485 113.2 236.865 114.31 236.865 115.771V124.558H233.772V116.248C233.772 115.435 233.556 114.842 233.124 114.467C232.692 114.086 232.164 113.896 231.539 113.896C230.794 113.896 230.212 114.129 229.792 114.595C229.377 115.055 229.169 115.654 229.169 116.393V124.558H226.144V116.12C226.144 115.444 225.939 114.904 225.53 114.501C225.127 114.097 224.598 113.896 223.945 113.896C223.502 113.896 223.098 114.009 222.735 114.237C222.371 114.458 222.081 114.774 221.865 115.183C221.65 115.586 221.542 116.058 221.542 116.597V124.558H218.456ZM245.791 124.813C244.478 124.813 243.345 124.541 242.39 123.995C241.441 123.444 240.711 122.666 240.2 121.66C239.689 120.649 239.433 119.458 239.433 118.089C239.433 116.742 239.689 115.56 240.2 114.543C240.717 113.521 241.439 112.725 242.365 112.157C243.291 111.583 244.379 111.296 245.629 111.296C246.436 111.296 247.197 111.427 247.913 111.688C248.635 111.944 249.271 112.342 249.822 112.881C250.379 113.421 250.816 114.109 251.135 114.944C251.453 115.774 251.612 116.762 251.612 117.91V118.856H240.882V116.776H248.654C248.649 116.185 248.521 115.66 248.271 115.2C248.021 114.734 247.672 114.367 247.223 114.1C246.779 113.833 246.262 113.7 245.672 113.7C245.041 113.7 244.487 113.853 244.01 114.16C243.532 114.461 243.16 114.859 242.893 115.353C242.632 115.842 242.498 116.379 242.493 116.964V118.779C242.493 119.541 242.632 120.194 242.91 120.739C243.189 121.279 243.578 121.694 244.078 121.984C244.578 122.268 245.163 122.41 245.833 122.41C246.282 122.41 246.689 122.347 247.052 122.222C247.416 122.092 247.731 121.901 247.998 121.651C248.265 121.401 248.467 121.092 248.603 120.722L251.484 121.046C251.302 121.808 250.956 122.472 250.444 123.041C249.939 123.603 249.291 124.041 248.501 124.353C247.711 124.66 246.808 124.813 245.791 124.813ZM257.307 116.887V124.558H254.222V111.467H257.171V113.691H257.324C257.625 112.958 258.105 112.376 258.765 111.944C259.429 111.512 260.25 111.296 261.228 111.296C262.131 111.296 262.918 111.489 263.588 111.876C264.265 112.262 264.787 112.822 265.157 113.555C265.532 114.288 265.716 115.177 265.711 116.222V124.558H262.625V116.7C262.625 115.825 262.398 115.14 261.944 114.646C261.495 114.151 260.873 113.904 260.077 113.904C259.537 113.904 259.057 114.024 258.637 114.262C258.222 114.495 257.895 114.833 257.657 115.276C257.424 115.72 257.307 116.256 257.307 116.887ZM274.8 124.558V111.467H277.749V113.691H277.902C278.175 112.941 278.627 112.356 279.257 111.935C279.888 111.509 280.641 111.296 281.516 111.296C282.402 111.296 283.15 111.512 283.757 111.944C284.371 112.37 284.803 112.953 285.053 113.691H285.189C285.479 112.964 285.968 112.384 286.655 111.953C287.348 111.515 288.169 111.296 289.118 111.296C290.323 111.296 291.306 111.677 292.067 112.438C292.828 113.2 293.209 114.31 293.209 115.771V124.558H290.115V116.248C290.115 115.435 289.9 114.842 289.468 114.467C289.036 114.086 288.507 113.896 287.882 113.896C287.138 113.896 286.556 114.129 286.135 114.595C285.721 115.055 285.513 115.654 285.513 116.393V124.558H282.488V116.12C282.488 115.444 282.283 114.904 281.874 114.501C281.471 114.097 280.942 113.896 280.289 113.896C279.846 113.896 279.442 114.009 279.078 114.237C278.715 114.458 278.425 114.774 278.209 115.183C277.993 115.586 277.885 116.058 277.885 116.597V124.558H274.8ZM302.135 124.813C300.822 124.813 299.689 124.541 298.734 123.995C297.785 123.444 297.055 122.666 296.544 121.66C296.032 120.649 295.777 119.458 295.777 118.089C295.777 116.742 296.032 115.56 296.544 114.543C297.061 113.521 297.782 112.725 298.708 112.157C299.635 111.583 300.723 111.296 301.973 111.296C302.779 111.296 303.541 111.427 304.257 111.688C304.978 111.944 305.615 112.342 306.166 112.881C306.723 113.421 307.16 114.109 307.478 114.944C307.797 115.774 307.956 116.762 307.956 117.91V118.856H297.225V116.776H304.998C304.993 116.185 304.865 115.66 304.615 115.2C304.365 114.734 304.015 114.367 303.566 114.1C303.123 113.833 302.606 113.7 302.015 113.7C301.385 113.7 300.831 113.853 300.353 114.16C299.876 114.461 299.504 114.859 299.237 115.353C298.975 115.842 298.842 116.379 298.836 116.964V118.779C298.836 119.541 298.975 120.194 299.254 120.739C299.532 121.279 299.922 121.694 300.422 121.984C300.922 122.268 301.507 122.41 302.177 122.41C302.626 122.41 303.032 122.347 303.396 122.222C303.76 122.092 304.075 121.901 304.342 121.651C304.609 121.401 304.811 121.092 304.947 120.722L307.828 121.046C307.646 121.808 307.299 122.472 306.788 123.041C306.282 123.603 305.635 124.041 304.845 124.353C304.055 124.66 303.152 124.813 302.135 124.813ZM315.424 124.788C314.395 124.788 313.475 124.524 312.662 123.995C311.85 123.467 311.208 122.7 310.736 121.694C310.265 120.688 310.029 119.467 310.029 118.029C310.029 116.575 310.267 115.347 310.745 114.347C311.228 113.342 311.878 112.583 312.696 112.072C313.515 111.555 314.426 111.296 315.432 111.296C316.199 111.296 316.83 111.427 317.324 111.688C317.819 111.944 318.211 112.254 318.5 112.617C318.79 112.975 319.015 113.313 319.174 113.631H319.301V107.103H322.395V124.558H319.361V122.495H319.174C319.015 122.813 318.784 123.151 318.483 123.509C318.182 123.862 317.784 124.163 317.29 124.413C316.796 124.663 316.174 124.788 315.424 124.788ZM316.284 122.256C316.938 122.256 317.495 122.08 317.955 121.728C318.415 121.37 318.765 120.873 319.003 120.237C319.242 119.6 319.361 118.859 319.361 118.012C319.361 117.166 319.242 116.43 319.003 115.805C318.77 115.18 318.424 114.694 317.963 114.347C317.509 114.001 316.949 113.828 316.284 113.828C315.597 113.828 315.023 114.006 314.563 114.364C314.103 114.722 313.756 115.217 313.523 115.847C313.29 116.478 313.174 117.2 313.174 118.012C313.174 118.83 313.29 119.56 313.523 120.203C313.762 120.839 314.111 121.342 314.571 121.711C315.037 122.075 315.608 122.256 316.284 122.256ZM128.854 142.927L126.041 143.234C125.962 142.95 125.822 142.683 125.624 142.433C125.43 142.183 125.169 141.981 124.839 141.828C124.51 141.674 124.107 141.597 123.629 141.597C122.987 141.597 122.447 141.737 122.01 142.015C121.578 142.293 121.365 142.654 121.371 143.097C121.365 143.478 121.504 143.788 121.788 144.026C122.078 144.265 122.555 144.461 123.22 144.614L125.453 145.092C126.692 145.359 127.612 145.782 128.214 146.362C128.822 146.941 129.129 147.7 129.135 148.637C129.129 149.461 128.888 150.188 128.411 150.819C127.939 151.444 127.283 151.933 126.442 152.285C125.601 152.637 124.635 152.813 123.544 152.813C121.942 152.813 120.652 152.478 119.675 151.808C118.697 151.131 118.115 150.191 117.928 148.987L120.936 148.697C121.072 149.288 121.362 149.734 121.805 150.035C122.249 150.336 122.825 150.487 123.536 150.487C124.268 150.487 124.857 150.336 125.3 150.035C125.749 149.734 125.973 149.362 125.973 148.918C125.973 148.543 125.828 148.234 125.538 147.989C125.254 147.745 124.811 147.558 124.209 147.427L121.976 146.958C120.72 146.697 119.791 146.256 119.189 145.637C118.587 145.012 118.288 144.222 118.294 143.268C118.288 142.461 118.507 141.762 118.95 141.171C119.399 140.575 120.021 140.114 120.817 139.791C121.618 139.461 122.541 139.296 123.587 139.296C125.121 139.296 126.328 139.623 127.209 140.276C128.095 140.93 128.643 141.813 128.854 142.927ZM143.372 139.467L138.71 152.558H135.301L130.639 139.467H133.929L136.938 149.191H137.074L140.091 139.467H143.372ZM148.899 152.822C148.07 152.822 147.322 152.674 146.658 152.379C145.999 152.078 145.476 151.634 145.089 151.049C144.709 150.464 144.518 149.742 144.518 148.884C144.518 148.146 144.655 147.535 144.928 147.052C145.2 146.569 145.572 146.183 146.044 145.893C146.516 145.603 147.047 145.384 147.638 145.237C148.234 145.083 148.851 144.972 149.487 144.904C150.254 144.825 150.876 144.754 151.354 144.691C151.831 144.623 152.178 144.521 152.393 144.384C152.615 144.242 152.726 144.024 152.726 143.728V143.677C152.726 143.035 152.536 142.538 152.155 142.185C151.774 141.833 151.226 141.657 150.51 141.657C149.754 141.657 149.155 141.822 148.712 142.151C148.274 142.481 147.979 142.87 147.825 143.319L144.945 142.91C145.172 142.114 145.547 141.45 146.07 140.916C146.592 140.376 147.232 139.972 147.987 139.705C148.743 139.433 149.578 139.296 150.493 139.296C151.124 139.296 151.751 139.37 152.376 139.518C153.001 139.666 153.572 139.91 154.089 140.251C154.607 140.586 155.021 141.043 155.334 141.623C155.652 142.203 155.811 142.927 155.811 143.796V152.558H152.845V150.759H152.743C152.555 151.123 152.291 151.464 151.95 151.782C151.615 152.095 151.192 152.347 150.68 152.541C150.175 152.728 149.581 152.822 148.899 152.822ZM149.7 150.555C150.32 150.555 150.857 150.433 151.311 150.188C151.766 149.938 152.115 149.609 152.359 149.2C152.609 148.791 152.734 148.345 152.734 147.862V146.319C152.638 146.399 152.473 146.472 152.24 146.541C152.013 146.609 151.757 146.668 151.473 146.72C151.189 146.771 150.908 146.816 150.629 146.856C150.351 146.896 150.109 146.93 149.905 146.958C149.445 147.021 149.033 147.123 148.669 147.265C148.305 147.407 148.018 147.606 147.808 147.862C147.598 148.112 147.493 148.435 147.493 148.833C147.493 149.401 147.7 149.83 148.115 150.12C148.53 150.41 149.058 150.555 149.7 150.555ZM158.913 152.558V139.467H161.862V141.691H162.016C162.288 140.941 162.74 140.356 163.371 139.935C164.001 139.509 164.754 139.296 165.629 139.296C166.516 139.296 167.263 139.512 167.871 139.944C168.484 140.37 168.916 140.953 169.166 141.691H169.303C169.592 140.964 170.081 140.384 170.768 139.953C171.462 139.515 172.283 139.296 173.232 139.296C174.436 139.296 175.419 139.677 176.18 140.438C176.942 141.2 177.322 142.31 177.322 143.771V152.558H174.229V144.248C174.229 143.435 174.013 142.842 173.581 142.467C173.149 142.086 172.621 141.896 171.996 141.896C171.251 141.896 170.669 142.129 170.249 142.595C169.834 143.055 169.626 143.654 169.626 144.393V152.558H166.601V144.12C166.601 143.444 166.396 142.904 165.987 142.501C165.584 142.097 165.055 141.896 164.402 141.896C163.959 141.896 163.555 142.009 163.192 142.237C162.828 142.458 162.538 142.774 162.322 143.183C162.107 143.586 161.999 144.058 161.999 144.597V152.558H158.913ZM180.452 157.467V139.467H183.487V141.631H183.665C183.825 141.313 184.049 140.975 184.339 140.617C184.629 140.254 185.021 139.944 185.515 139.688C186.009 139.427 186.64 139.296 187.407 139.296C188.418 139.296 189.33 139.555 190.143 140.072C190.961 140.583 191.609 141.342 192.086 142.347C192.569 143.347 192.81 144.575 192.81 146.029C192.81 147.467 192.575 148.688 192.103 149.694C191.631 150.7 190.989 151.467 190.177 151.995C189.364 152.524 188.444 152.788 187.415 152.788C186.665 152.788 186.043 152.663 185.549 152.413C185.055 152.163 184.657 151.862 184.356 151.509C184.06 151.151 183.83 150.813 183.665 150.495H183.538V157.467H180.452ZM183.478 146.012C183.478 146.859 183.597 147.6 183.836 148.237C184.08 148.873 184.43 149.37 184.884 149.728C185.344 150.08 185.901 150.256 186.555 150.256C187.237 150.256 187.808 150.075 188.268 149.711C188.728 149.342 189.075 148.839 189.308 148.203C189.546 147.56 189.665 146.83 189.665 146.012C189.665 145.2 189.549 144.478 189.316 143.847C189.083 143.217 188.737 142.722 188.276 142.364C187.816 142.006 187.242 141.828 186.555 141.828C185.896 141.828 185.336 142.001 184.876 142.347C184.415 142.694 184.066 143.18 183.827 143.805C183.594 144.43 183.478 145.166 183.478 146.012ZM201.248 152.813C199.935 152.813 198.802 152.541 197.847 151.995C196.898 151.444 196.168 150.666 195.657 149.66C195.146 148.649 194.89 147.458 194.89 146.089C194.89 144.742 195.146 143.56 195.657 142.543C196.174 141.521 196.896 140.725 197.822 140.157C198.748 139.583 199.836 139.296 201.086 139.296C201.893 139.296 202.654 139.427 203.37 139.688C204.092 139.944 204.728 140.342 205.279 140.881C205.836 141.421 206.273 142.109 206.592 142.944C206.91 143.774 207.069 144.762 207.069 145.91V146.856H196.339V144.776H204.112C204.106 144.185 203.978 143.66 203.728 143.2C203.478 142.734 203.129 142.367 202.68 142.1C202.237 141.833 201.719 141.7 201.129 141.7C200.498 141.7 199.944 141.853 199.467 142.16C198.989 142.461 198.617 142.859 198.35 143.353C198.089 143.842 197.955 144.379 197.95 144.964V146.779C197.95 147.541 198.089 148.194 198.367 148.739C198.646 149.279 199.035 149.694 199.535 149.984C200.035 150.268 200.62 150.41 201.29 150.41C201.739 150.41 202.146 150.347 202.509 150.222C202.873 150.092 203.188 149.901 203.455 149.651C203.722 149.401 203.924 149.092 204.06 148.722L206.941 149.046C206.759 149.808 206.413 150.472 205.901 151.041C205.396 151.603 204.748 152.041 203.958 152.353C203.168 152.66 202.265 152.813 201.248 152.813ZM221.342 152.813C220.064 152.813 218.956 152.532 218.018 151.97C217.081 151.407 216.354 150.62 215.837 149.609C215.325 148.597 215.07 147.416 215.07 146.063C215.07 144.711 215.325 143.526 215.837 142.509C216.354 141.492 217.081 140.703 218.018 140.14C218.956 139.578 220.064 139.296 221.342 139.296C222.621 139.296 223.729 139.578 224.666 140.14C225.604 140.703 226.328 141.492 226.839 142.509C227.357 143.526 227.615 144.711 227.615 146.063C227.615 147.416 227.357 148.597 226.839 149.609C226.328 150.62 225.604 151.407 224.666 151.97C223.729 152.532 222.621 152.813 221.342 152.813ZM221.359 150.342C222.053 150.342 222.632 150.151 223.098 149.771C223.564 149.384 223.911 148.867 224.138 148.22C224.371 147.572 224.487 146.85 224.487 146.055C224.487 145.254 224.371 144.529 224.138 143.881C223.911 143.228 223.564 142.708 223.098 142.322C222.632 141.935 222.053 141.742 221.359 141.742C220.649 141.742 220.058 141.935 219.587 142.322C219.121 142.708 218.771 143.228 218.538 143.881C218.311 144.529 218.197 145.254 218.197 146.055C218.197 146.85 218.311 147.572 218.538 148.22C218.771 148.867 219.121 149.384 219.587 149.771C220.058 150.151 220.649 150.342 221.359 150.342ZM235.927 157.739C234.819 157.739 233.867 157.589 233.072 157.288C232.276 156.992 231.637 156.595 231.154 156.095C230.671 155.595 230.336 155.041 230.148 154.433L232.927 153.759C233.052 154.015 233.234 154.268 233.472 154.518C233.711 154.774 234.032 154.984 234.435 155.149C234.844 155.319 235.359 155.404 235.978 155.404C236.853 155.404 237.577 155.191 238.151 154.765C238.725 154.345 239.012 153.651 239.012 152.685V150.205H238.859C238.7 150.524 238.467 150.85 238.16 151.185C237.859 151.521 237.458 151.802 236.958 152.029C236.464 152.256 235.842 152.37 235.092 152.37C234.086 152.37 233.174 152.134 232.356 151.663C231.543 151.185 230.896 150.475 230.413 149.532C229.935 148.583 229.697 147.396 229.697 145.97C229.697 144.532 229.935 143.319 230.413 142.33C230.896 141.336 231.546 140.583 232.364 140.072C233.183 139.555 234.094 139.296 235.1 139.296C235.867 139.296 236.498 139.427 236.992 139.688C237.492 139.944 237.89 140.254 238.185 140.617C238.481 140.975 238.705 141.313 238.859 141.631H239.029V139.467H242.072V152.771C242.072 153.89 241.805 154.816 241.271 155.549C240.737 156.282 240.006 156.83 239.08 157.194C238.154 157.558 237.103 157.739 235.927 157.739ZM235.952 149.95C236.606 149.95 237.163 149.791 237.623 149.472C238.083 149.154 238.433 148.697 238.671 148.1C238.91 147.504 239.029 146.788 239.029 145.953C239.029 145.129 238.91 144.407 238.671 143.788C238.438 143.168 238.092 142.688 237.631 142.347C237.177 142.001 236.617 141.828 235.952 141.828C235.265 141.828 234.691 142.006 234.231 142.364C233.771 142.722 233.424 143.214 233.191 143.839C232.958 144.458 232.842 145.163 232.842 145.953C232.842 146.754 232.958 147.455 233.191 148.058C233.43 148.654 233.779 149.12 234.239 149.455C234.705 149.785 235.276 149.95 235.952 149.95ZM251.187 157.467V139.467H254.221V141.631H254.4C254.559 141.313 254.783 140.975 255.073 140.617C255.363 140.254 255.755 139.944 256.249 139.688C256.744 139.427 257.374 139.296 258.141 139.296C259.153 139.296 260.065 139.555 260.877 140.072C261.695 140.583 262.343 141.342 262.82 142.347C263.303 143.347 263.545 144.575 263.545 146.029C263.545 147.467 263.309 148.688 262.837 149.694C262.366 150.7 261.724 151.467 260.911 151.995C260.099 152.524 259.178 152.788 258.15 152.788C257.4 152.788 256.778 152.663 256.283 152.413C255.789 152.163 255.391 151.862 255.09 151.509C254.795 151.151 254.565 150.813 254.4 150.495H254.272V157.467H251.187ZM254.212 146.012C254.212 146.859 254.332 147.6 254.57 148.237C254.815 148.873 255.164 149.37 255.619 149.728C256.079 150.08 256.636 150.256 257.289 150.256C257.971 150.256 258.542 150.075 259.002 149.711C259.462 149.342 259.809 148.839 260.042 148.203C260.281 147.56 260.4 146.83 260.4 146.012C260.4 145.2 260.283 144.478 260.05 143.847C259.817 143.217 259.471 142.722 259.011 142.364C258.55 142.006 257.977 141.828 257.289 141.828C256.63 141.828 256.07 142.001 255.61 142.347C255.15 142.694 254.8 143.18 254.562 143.805C254.329 144.43 254.212 145.166 254.212 146.012ZM269.954 152.822C269.124 152.822 268.377 152.674 267.712 152.379C267.053 152.078 266.531 151.634 266.144 151.049C265.763 150.464 265.573 149.742 265.573 148.884C265.573 148.146 265.71 147.535 265.982 147.052C266.255 146.569 266.627 146.183 267.099 145.893C267.57 145.603 268.102 145.384 268.692 145.237C269.289 145.083 269.906 144.972 270.542 144.904C271.309 144.825 271.931 144.754 272.408 144.691C272.886 144.623 273.232 144.521 273.448 144.384C273.67 144.242 273.781 144.024 273.781 143.728V143.677C273.781 143.035 273.59 142.538 273.21 142.185C272.829 141.833 272.281 141.657 271.565 141.657C270.809 141.657 270.21 141.822 269.766 142.151C269.329 142.481 269.033 142.87 268.88 143.319L265.999 142.91C266.227 142.114 266.602 141.45 267.124 140.916C267.647 140.376 268.286 139.972 269.042 139.705C269.798 139.433 270.633 139.296 271.548 139.296C272.178 139.296 272.806 139.37 273.431 139.518C274.056 139.666 274.627 139.91 275.144 140.251C275.661 140.586 276.076 141.043 276.388 141.623C276.707 142.203 276.866 142.927 276.866 143.796V152.558H273.9V150.759H273.798C273.61 151.123 273.346 151.464 273.005 151.782C272.67 152.095 272.246 152.347 271.735 152.541C271.229 152.728 270.636 152.822 269.954 152.822ZM270.755 150.555C271.374 150.555 271.911 150.433 272.366 150.188C272.82 149.938 273.17 149.609 273.414 149.2C273.664 148.791 273.789 148.345 273.789 147.862V146.319C273.692 146.399 273.528 146.472 273.295 146.541C273.067 146.609 272.812 146.668 272.528 146.72C272.244 146.771 271.962 146.816 271.684 146.856C271.406 146.896 271.164 146.93 270.96 146.958C270.499 147.021 270.087 147.123 269.724 147.265C269.36 147.407 269.073 147.606 268.863 147.862C268.653 148.112 268.548 148.435 268.548 148.833C268.548 149.401 268.755 149.83 269.17 150.12C269.585 150.41 270.113 150.555 270.755 150.555ZM282.781 148.45L282.772 144.725H283.266L287.971 139.467H291.576L285.789 145.91H285.15L282.781 148.45ZM279.968 152.558V135.103H283.053V152.558H279.968ZM288.184 152.558L283.923 146.6L286.002 144.427L291.874 152.558H288.184ZM305.295 152.813C303.989 152.813 302.866 152.526 301.929 151.953C300.997 151.379 300.278 150.586 299.773 149.575C299.273 148.558 299.023 147.387 299.023 146.063C299.023 144.734 299.278 143.56 299.79 142.543C300.301 141.521 301.023 140.725 301.955 140.157C302.892 139.583 304 139.296 305.278 139.296C306.341 139.296 307.281 139.492 308.099 139.884C308.923 140.271 309.58 140.819 310.068 141.529C310.557 142.234 310.835 143.058 310.903 144.001H307.955C307.835 143.37 307.551 142.845 307.102 142.424C306.659 141.998 306.065 141.785 305.321 141.785C304.69 141.785 304.136 141.955 303.659 142.296C303.182 142.631 302.81 143.114 302.543 143.745C302.281 144.376 302.151 145.131 302.151 146.012C302.151 146.904 302.281 147.671 302.543 148.313C302.804 148.95 303.17 149.441 303.642 149.788C304.119 150.129 304.679 150.299 305.321 150.299C305.776 150.299 306.182 150.214 306.54 150.043C306.903 149.867 307.207 149.614 307.452 149.285C307.696 148.955 307.864 148.555 307.955 148.083H310.903C310.83 149.009 310.557 149.83 310.085 150.546C309.614 151.256 308.972 151.813 308.159 152.217C307.347 152.614 306.392 152.813 305.295 152.813ZM316.522 144.887V152.558H313.437V135.103H316.454V141.691H316.607C316.914 140.953 317.388 140.37 318.031 139.944C318.678 139.512 319.502 139.296 320.502 139.296C321.411 139.296 322.204 139.487 322.88 139.867C323.556 140.248 324.079 140.805 324.448 141.538C324.823 142.271 325.011 143.166 325.011 144.222V152.558H321.925V144.7C321.925 143.819 321.698 143.134 321.244 142.646C320.795 142.151 320.164 141.904 319.352 141.904C318.806 141.904 318.317 142.024 317.886 142.262C317.46 142.495 317.124 142.833 316.88 143.276C316.641 143.72 316.522 144.256 316.522 144.887ZM333.866 152.813C332.587 152.813 331.479 152.532 330.542 151.97C329.604 151.407 328.877 150.62 328.36 149.609C327.849 148.597 327.593 147.416 327.593 146.063C327.593 144.711 327.849 143.526 328.36 142.509C328.877 141.492 329.604 140.703 330.542 140.14C331.479 139.578 332.587 139.296 333.866 139.296C335.144 139.296 336.252 139.578 337.19 140.14C338.127 140.703 338.852 141.492 339.363 142.509C339.88 143.526 340.138 144.711 340.138 146.063C340.138 147.416 339.88 148.597 339.363 149.609C338.852 150.62 338.127 151.407 337.19 151.97C336.252 152.532 335.144 152.813 333.866 152.813ZM333.883 150.342C334.576 150.342 335.156 150.151 335.621 149.771C336.087 149.384 336.434 148.867 336.661 148.22C336.894 147.572 337.011 146.85 337.011 146.055C337.011 145.254 336.894 144.529 336.661 143.881C336.434 143.228 336.087 142.708 335.621 142.322C335.156 141.935 334.576 141.742 333.883 141.742C333.173 141.742 332.582 141.935 332.11 142.322C331.644 142.708 331.295 143.228 331.062 143.881C330.835 144.529 330.721 145.254 330.721 146.055C330.721 146.85 330.835 147.572 331.062 148.22C331.295 148.867 331.644 149.384 332.11 149.771C332.582 150.151 333.173 150.342 333.883 150.342ZM342.757 152.558V139.467H345.842V152.558H342.757ZM344.308 137.609C343.82 137.609 343.399 137.447 343.047 137.123C342.695 136.793 342.518 136.399 342.518 135.938C342.518 135.472 342.695 135.078 343.047 134.754C343.399 134.424 343.82 134.259 344.308 134.259C344.803 134.259 345.223 134.424 345.57 134.754C345.922 135.078 346.098 135.472 346.098 135.938C346.098 136.399 345.922 136.793 345.57 137.123C345.223 137.447 344.803 137.609 344.308 137.609Z" fill="white"/>
</svg>
